<mxfile host="app.diagrams.net" modified="2024-07-02T02:34:52.684Z" agent="Mozilla/5.0 (Macintosh; Intel Mac OS X 10_15_7) AppleWebKit/537.36 (KHTML, like Gecko) Chrome/126.0.0.0 Safari/537.36" version="24.6.4" etag="u0AdwjGcw6FmsZEM2vwu" type="github">
  <diagram name="第 1 页" id="uqIUrCoIgua3hrRwXRPW">
    <mxGraphModel>
      <root>
        <mxCell id="0" />
        <mxCell id="1" parent="0" />
      </root>
    </mxGraphModel>
  </diagram>
</mxfile>
